<svg xmlns="http://www.w3.org/2000/svg" height="25.29" width="101.6" viewBox="0 0 101.6 25.29"><defs><style>.cls-1{fill:#1779b7;}.cls-2{fill:#1c7bb6;}.cls-3{fill:#1b7bb6;}.cls-4{fill:#1c7ab4;}.cls-5{fill:#1e7ab3;}.cls-6{fill:#1c77b1;}.cls-7{fill:#1b7ab5;}.cls-8{fill:#ecf8f8;}.cls-9{fill:#eff7f8;}</style></defs><g id="Layer_2" data-name="Layer 2"><g id="Layer_1-2" data-name="Layer 1"><g id="Layer_2-2" data-name="Layer 2"><g id="Layer_1-2-2" data-name="Layer 1-2"><g id="Layer_2-2-2" data-name="Layer 2-2"><g id="Layer_1-2-2-2" data-name="Layer 1-2-2"><path class="cls-1" d="M66.26,25.29A12.62,12.62,0,0,1,53.59,12.72h0A12.67,12.67,0,1,1,66.27,25.28h0Zm6.28-14.17c-1.61-.16-3.11.07-4.61-.15-.25-1.57.12-3.12-.22-4.61H64.78c-.22,1.56.07,3.1-.2,4.72H60a16.37,16.37,0,0,0,0,3.13c1.61.26,3.15-.11,4.76.27v4.59a14.71,14.71,0,0,0,3.11-.13V14.36c1.62-.21,3.16.08,4.68-.19A14.14,14.14,0,0,0,72.54,11.12Z"/><path class="cls-2" d="M35,17.71c-2.05,3.5-7.9,3.23-10.18,1.58A4.26,4.26,0,0,1,23,16.14c-.3-3.4-.07-6.81-.13-10.22a.89.89,0,0,1,.75-1h.14A4.47,4.47,0,0,1,25.84,5a2.13,2.13,0,0,1,.41,1.68v7.7c0,2.1,1,3.11,2.92,3.1s3-1,3-3.17v-9a3.13,3.13,0,0,1,3.62.18,2.62,2.62,0,0,0-.21,1.56c0,1.63,0,3.25-.05,4.88C35.55,13.87,35.72,15.83,35,17.71Z"/><path class="cls-3" d="M3.2,14.66V19.9a4.19,4.19,0,0,1-3.2.22V5.27a1,1,0,0,1,.8-.35,37.68,37.68,0,0,1,5.72.18c3.32.63,3.91,2.1,4,4.49A4.51,4.51,0,0,1,6.73,14.4C5.65,14.62,4.52,14.45,3.2,14.66Zm.06-3.18c2.15.31,3.07.15,3.51-.7A2,2,0,0,0,6.6,8.42c-1-1-2.21-.59-3.47-.54a24.61,24.61,0,0,0,.13,3.61Z"/><path class="cls-4" d="M37.76,9c.19-.75,0-1.61.64-2.21a7.12,7.12,0,0,1,3.1-2,11.12,11.12,0,0,1,4,.33,2.12,2.12,0,0,1,1.36,1,2.53,2.53,0,0,1-.9,2,10,10,0,0,1-2-.37,4.27,4.27,0,0,0-1.67.09A1.18,1.18,0,0,0,41.78,10a6,6,0,0,0,1.31.8c.66.35,1.35.63,2,1A4.7,4.7,0,0,1,47,18.12a4.58,4.58,0,0,1-.62.89,5.51,5.51,0,0,1-3.52,1.5c-1.56-.19-3.18-.12-4.58-1.05-.92-.61-1-1-.42-1.95.25-.37.47-.82,1.13-.9,1.52.71,3.14,1.49,4.86.35.32-1.5.25-1.7-.9-2.34-.61-.33-1.26-.6-1.9-.88C39,12.83,37.72,11.38,37.76,9Z"/><path class="cls-5" d="M94.13,8c-1.48-.37-2.77.1-3.95-.37A4.87,4.87,0,0,1,90,5.3c1.09-.42,9.87-.5,11.4-.13a4.88,4.88,0,0,1,0,2.46c-1.24.48-2.52,0-3.74.3-.34.47-.19,1-.19,1.5,0,3.08,0,6.16,0,9.24,0,1.49-.08,1.58-1.58,1.59a2.89,2.89,0,0,1-1.8-.31Z"/><path class="cls-6" d="M12.42,5.26a3.35,3.35,0,0,1,3.22,0V17.29c1.84.27,3.56,0,5.24.18A2.92,2.92,0,0,1,21,20.18H12.71C12.23,19.2,12,8.23,12.42,5.26Z"/><path class="cls-7" d="M88.24,20.12a9.75,9.75,0,0,1-2.75.1A1.19,1.19,0,0,1,85,19.07V6a1.45,1.45,0,0,1,.24-.88,4.19,4.19,0,0,1,3,0Z"/><path class="cls-8" d="M41.5,4.82a7.09,7.09,0,0,0-3.09,2c-.12-.29-.41-.33-.68-.38.12-.72.83-.31,1.1-.71,0-.47-.71-.45-.59-1.12,1-.48,2-1.21,3.48-.75-.33.78-1.4-.2-1.5.77C40.58,5,41.07,4.72,41.5,4.82Z"/><path class="cls-9" d="M3.26,11.49a24.47,24.47,0,0,1-.13-3.6c1.26,0,2.5-.45,3.47.54a2,2,0,0,1,.17,2.35C6.36,11.58,5.41,11.79,3.26,11.49Z"/></g></g></g></g></g></g></svg>



